<svg width="117" height="24" viewBox="0 0 117 24" fill="none" xmlns="http://www.w3.org/2000/svg">
<g clip-path="url(#clip0_2018_72)">
<mask id="mask0_2018_72" style="mask-type:luminance" maskUnits="userSpaceOnUse" x="0" y="0" width="117" height="24">
<path d="M117 0.0761719H0V23.9162H117V0.0761719Z" fill="white"/>
</mask>
<g mask="url(#mask0_2018_72)">
<path d="M23.5098 23.1013L23.2451 22.4969L20.1889 15.5505L18.946 12.722C17.1605 8.66272 15.3762 4.60231 13.5929 0.540826C13.5385 0.395744 13.4388 0.272034 13.3085 0.188014C13.1782 0.103994 13.0243 0.0641347 12.8696 0.0743395C12.253 0.0743395 11.6727 0.0743395 11.0365 0.0743395C10.8652 0.0618423 10.6946 0.106079 10.5511 0.200203C10.4076 0.294329 10.2991 0.433094 10.2424 0.595029C7.57904 6.6703 4.90912 12.745 2.23261 18.8192L0.771057 22.1437L0.412656 22.965L0 23.9095H1.5454C2.17671 23.9095 2.83104 23.9095 3.47222 23.9095H3.487C3.63924 23.9168 3.78973 23.8747 3.916 23.7894C4.04224 23.7041 4.13746 23.5803 4.18739 23.4364C4.51618 22.6699 4.84499 21.9034 5.17381 21.1368C5.52125 20.3363 5.86648 19.5359 6.20954 18.7354V18.7239H6.24736C10.1734 18.7321 14.0007 18.7321 17.6258 18.7239H17.6472L17.6636 18.7568C18.2933 20.2351 18.9608 21.761 19.7022 23.4495C19.7509 23.5678 19.8302 23.6709 19.9319 23.7486C20.0335 23.8262 20.154 23.8755 20.2809 23.8914C21.0602 23.9029 21.8263 23.9013 22.6385 23.9013H23.8386L23.5838 23.2656C23.5591 23.2015 23.5378 23.1473 23.5131 23.0931M16.0738 15.1859H7.78783L11.9456 5.68367L16.0738 15.1859Z" fill="#262626"/>
<path d="M39.7145 6.0183C39.6153 6.02764 39.5189 6.05743 39.4319 6.10577C39.3449 6.15411 39.2686 6.21995 39.2081 6.29918C38.6426 6.95619 38.0793 7.61322 37.5181 8.27023L29.2978 17.912V6.02157H25.7812V23.9123H26.743C27.2477 23.9123 27.7294 23.9123 28.2095 23.9123H28.2309C28.372 23.9165 28.5122 23.8879 28.6405 23.8286C28.7685 23.7693 28.881 23.6809 28.9692 23.5707C31.6226 20.4662 34.2794 17.364 36.9393 14.2639L38.8136 12.0777V23.8942H42.3385V6.01172H41.4523C40.8554 6.01172 40.2916 6.01172 39.7145 6.01994" fill="#262626"/>
<path d="M108.011 6.03125C105.545 6.03125 103.268 6.94946 101.609 8.61501C100.783 9.45537 100.132 10.4513 99.6947 11.5451C99.257 12.6389 99.0411 13.8087 99.0597 14.9865C99.0792 20.0685 102.933 23.8908 108.029 23.8908H108.057C110.523 23.8908 112.789 22.9693 114.445 21.3152C115.272 20.4775 115.924 19.4836 116.364 18.3914C116.803 17.2992 117.02 16.1305 117.003 14.9536C116.988 9.86171 113.124 6.03125 108.016 6.03125M108.016 20.4956C104.914 20.4956 102.571 18.1254 102.565 14.9783C102.558 11.8311 104.888 9.43956 107.992 9.42971H108.011C108.732 9.41985 109.448 9.55264 110.117 9.82048C110.787 10.0883 111.396 10.4858 111.911 10.9901C112.427 11.5137 112.833 12.1345 113.106 12.8163C113.379 13.4982 113.514 14.2275 113.502 14.9618C113.502 18.1106 111.15 20.489 108.025 20.4956H108.016Z" fill="#262626"/>
<path d="M45.0156 9.44942H51.4472V23.8908H54.9883V9.44942H61.3936V6.03125H45.0156V9.44942Z" fill="#262626"/>
<path d="M87.1172 14.1842L94.3754 6.30151C94.4619 6.20822 94.5667 6.13382 94.6832 6.08294C94.7999 6.03206 94.9256 6.0058 95.0528 6.00586H99.0184L91.1548 14.6621L100.087 23.9163H95.7647C95.6415 23.9159 95.5197 23.8905 95.4066 23.8416C95.2936 23.7928 95.1919 23.7215 95.1071 23.6321L87.1172 15.1434V23.8933H83.6055V6.02393H87.1172V14.1842Z" fill="#262626"/>
<path d="M40.2257 0.0761719H33.4852C33.3634 0.0764537 33.243 0.101837 33.1317 0.150733C33.0204 0.199629 32.92 0.270985 32.8375 0.360335L29.9473 3.49105H36.7256C36.8494 3.49223 36.9721 3.46722 37.0854 3.41769C37.1987 3.36814 37.3002 3.29518 37.3833 3.20361L40.2257 0.0761719Z" fill="#1CAC78"/>
<path d="M71.2421 6.03125C68.776 6.03125 66.499 6.94946 64.8384 8.61501C64.0129 9.45566 63.3624 10.4517 62.9249 11.5455C62.4874 12.6392 62.2718 13.8088 62.2901 14.9865C62.2901 16.1957 62.5253 17.3934 62.9823 18.513C64.3108 21.7374 67.4362 23.8908 71.2618 23.8908H71.2898C73.7559 23.8908 76.0148 23.127 77.7443 21.5074C78.4751 20.8533 79.0751 20.0662 79.5115 19.1881C79.5256 19.1605 79.5321 19.1297 79.5304 19.0989C79.529 19.068 79.5194 19.038 79.503 19.0118C79.4863 18.9857 79.4634 18.9643 79.436 18.9497C79.4089 18.9351 79.3781 18.9279 79.3473 18.9286H75.7039C75.5199 18.929 75.3419 18.9942 75.2008 19.1126C74.0809 20.0076 72.6893 20.4953 71.2551 20.4956H71.2454C70.0859 20.5172 68.9512 20.1599 68.0135 19.4779C67.0761 18.796 66.3874 17.8268 66.0517 16.7177C66.0486 16.7085 66.0477 16.6985 66.0491 16.6888C66.0508 16.6791 66.0545 16.6699 66.0604 16.662C66.0661 16.6541 66.0737 16.6477 66.0825 16.6434C66.0915 16.6391 66.1011 16.637 66.111 16.6372H80.0657L80.0787 16.5699C80.1711 16.0376 80.22 15.4987 80.2251 14.9585C80.2776 9.3295 76.3502 6.03125 71.2421 6.03125ZM76.4226 13.3341H66.0912C66.0816 13.3343 66.072 13.3321 66.0635 13.3279C66.0548 13.3237 66.0471 13.3175 66.0415 13.3098C66.0358 13.3021 66.0319 13.2931 66.0302 13.2836C66.0285 13.2741 66.0293 13.2644 66.0322 13.2552C66.7093 10.9934 68.7218 9.43956 71.2223 9.42971H71.237C71.9573 9.42028 72.6726 9.55329 73.3413 9.8211C74.0099 10.0889 74.6189 10.4862 75.1336 10.9901C75.7644 11.6209 76.2267 12.3997 76.4782 13.2552C76.4808 13.2641 76.4813 13.2735 76.4796 13.2826C76.478 13.2917 76.4746 13.3003 76.4692 13.3079C76.4638 13.3154 76.4567 13.3217 76.4486 13.3262C76.4406 13.3308 76.4316 13.3334 76.4226 13.3341Z" fill="#262626"/>
</g>
</g>
<defs>
<clipPath id="clip0_2018_72">
<rect width="117" height="24" fill="white"/>
</clipPath>
</defs>
</svg>
