<svg width="17" height="18" viewBox="0 0 17 18" fill="none" xmlns="http://www.w3.org/2000/svg">
<path d="M3.43209 6.81599C1.41609 6.81599 9.18806e-05 5.39999 9.18806e-05 3.43199C9.18806e-05 1.41599 1.41609 -1.4782e-05 3.43209 -1.4782e-05C5.40009 -1.4782e-05 6.81609 1.43999 6.81609 3.43199C6.81609 5.39999 5.40009 6.81599 3.43209 6.81599ZM0.192092 17.136L13.7761 0.239985H15.8641L2.18409 17.16L0.192092 17.136ZM3.40809 5.30399C4.53609 5.30399 5.28009 4.53599 5.28009 3.40799C5.28009 2.25599 4.53609 1.51199 3.40809 1.51199C2.32809 1.51199 1.53609 2.25599 1.53609 3.40799C1.53609 4.53599 2.32809 5.30399 3.40809 5.30399ZM12.9841 17.376C10.9681 17.376 9.55209 15.96 9.55209 13.992C9.55209 11.976 10.9681 10.56 12.9841 10.56C14.9521 10.56 16.3681 12 16.3681 13.992C16.3681 15.96 14.9521 17.376 12.9841 17.376ZM12.9841 15.864C14.0881 15.864 14.8321 15.096 14.8321 13.992C14.8321 12.816 14.0881 12.072 12.9841 12.072C11.8801 12.072 11.0881 12.816 11.0881 13.992C11.0881 15.096 11.8801 15.864 12.9841 15.864Z" fill="#1CAC78"/>
</svg>
