<svg width="95" height="28" viewBox="0 0 95 28" fill="none" xmlns="http://www.w3.org/2000/svg">
<g clip-path="url(#clip0_2032_855)">
<path d="M10.3243 18.492C7.9465 17.0024 5.61376 15.1544 3.57402 13.1384C2.66121 12.2312 0.993355 10.484 -0.0546875 8.74805C0.0354667 10.2264 0.3172 12.5672 1.15113 15.1768C1.78221 17.1368 2.6274 18.9512 3.66417 20.564C5.77153 20.396 8.05919 19.6232 10.313 18.4808L10.3243 18.492Z" fill="white"/>
<path d="M4.77569 11.9507C6.84924 14.0003 9.38482 15.9939 12.0331 17.5619C14.6814 16.0051 17.217 14.0003 19.2905 11.9507C22.3107 8.9715 23.3587 6.8883 23.3475 6.1491C20.316 5.7571 17.7241 4.6259 16.045 3.7299C14.1179 2.6883 12.9459 1.7251 12.9346 1.7139L12.3036 1.1875L11.6725 1.7139C11.6612 1.7139 10.4892 2.6995 8.56217 3.7299C6.80416 4.6707 4.03192 5.8691 0.797636 6.2051H0.71875C0.763827 7.0003 1.83441 9.0499 4.77569 11.9507Z" fill="white"/>
<path d="M12.4444 19.724C12.3091 19.6456 12.1739 19.5784 12.0274 19.5C11.8922 19.5784 11.7569 19.6568 11.6104 19.724C9.21008 21.0008 6.89987 21.8184 4.78125 22.132C6.66322 24.5288 9.04104 26.4216 11.8696 27.7656L12.2866 27.9672L12.7036 27.7656C15.4983 26.444 17.8649 24.5624 19.7356 22.1992C17.493 21.9304 15.0138 21.0904 12.4218 19.724H12.4444Z" fill="white"/>
<path d="M20.4769 13.1496C18.4371 15.1656 16.1044 17.0024 13.7266 18.5032C16.1607 19.7352 18.64 20.5416 20.8938 20.62C21.9419 18.996 22.7983 17.1704 23.4294 15.1992C24.5338 11.7608 24.669 8.79279 24.6803 7.65039C23.8238 9.69999 21.5925 12.0632 20.4769 13.1608V13.1496Z" fill="white"/>
<mask id="mask0_2032_855" style="mask-type:luminance" maskUnits="userSpaceOnUse" x="0" y="0" width="24" height="17">
<path d="M4.77569 10.7632C6.84924 12.8128 9.38482 14.8064 12.0331 16.3744C14.6814 14.8176 17.217 12.8128 19.2905 10.7632C22.3107 7.784 23.3587 5.7008 23.3475 4.9616C20.316 4.5696 17.7241 3.4384 16.045 2.5424C14.1179 1.5008 12.9459 0.537601 12.9346 0.526401L12.3036 0L11.6725 0.526401C11.6612 0.526401 10.4892 1.512 8.56217 2.5424C6.80416 3.4832 4.03192 4.6816 0.797636 5.0176H0.71875C0.763827 5.8128 1.83441 7.8624 4.77569 10.7632Z" fill="white"/>
</mask>
<g mask="url(#mask0_2032_855)">
<path d="M8.62132 5.91424V8.10944H6.75062L8.62132 5.91424ZM6.57031 9.25185H8.94813C9.24113 9.25185 9.70317 8.79264 9.70317 8.50144V5.62305H17.1296V18.167H6.57031V9.25185Z" fill="#2E2748"/>
</g>
<path d="M30.0742 12.3652H34.1875C36.6104 12.3652 38.1543 13.7428 38.1543 15.8596C38.1543 17.9764 36.2723 19.3988 33.9847 19.3988H31.9111V22.7252H30.0742V12.3652ZM34.0297 17.7524C35.4159 17.7524 36.2836 16.9796 36.2836 15.8708C36.2836 14.762 35.4046 14.0228 34.0297 14.0228H31.8998V17.7524H34.0297Z" fill="white"/>
<path d="M41.1402 12.3652H45.7831C48.2285 12.3652 49.6597 13.6644 49.6597 15.6692C49.6597 17.674 48.6342 18.3908 47.1692 18.8052L49.9866 22.7252H47.8229L45.2309 19.1076H42.9658V22.7252H41.1289V12.3652H41.1402ZM45.6479 17.4948C46.9551 17.4948 47.789 16.8116 47.789 15.7364C47.789 14.6612 46.9889 14.0228 45.6253 14.0228H42.9545V17.506H45.6366L45.6479 17.4948Z" fill="white"/>
<path d="M53.1328 12.3652H54.9697V22.7252H53.1328V12.3652Z" fill="white"/>
<path d="M58.8672 12.3652H60.5688L66.1584 19.5332V12.3652H67.9615V22.7252H66.4289L60.6815 15.3556V22.7252H58.8785V12.3652H58.8672Z" fill="white"/>
<path d="M74.3058 14.0447H71.0039V12.3535H79.4671V14.0447H76.1652V22.7247H74.3171V14.0447H74.3058Z" fill="white"/>
<path d="M89.0434 17.4495L85.3921 12.3535H87.5558L90.1478 16.0719L92.751 12.3535H94.8471L91.2071 17.4159L94.9936 22.7135H92.8299L90.0914 18.7935L87.3305 22.7135H85.2344L89.0321 17.4383L89.0434 17.4495Z" fill="white"/>
<path d="M83.7271 16.4648H81.5859V18.5928H83.7271V16.4648Z" fill="white"/>
</g>
<defs>
<clipPath id="clip0_2032_855">
<rect width="95" height="28" fill="white"/>
</clipPath>
</defs>
</svg>
